<mxfile host="61818b1b-5ac0-48fa-90b9-7274736182ac" modified="2020-09-16T06:55:20.363Z" agent="5.0 (Windows NT 10.0; Win64; x64) AppleWebKit/537.36 (KHTML, like Gecko) Code/1.49.0 Chrome/83.0.4103.122 Electron/9.2.1 Safari/537.36" etag="79TQ-ck8gpWiDqdMeiJE" version="13.1.3">
    <diagram id="6hGFLwfOUW9BJ-s0fimq" name="Page-1">
        <mxGraphModel dx="422" dy="792" grid="1" gridSize="10" guides="0" tooltips="1" connect="1" arrows="1" fold="1" page="1" pageScale="1" pageWidth="500" pageHeight="150" math="0" shadow="0">
            <root>
                <mxCell id="0"/>
                <mxCell id="1" parent="0"/>
                <mxCell id="103" style="edgeStyle=orthogonalEdgeStyle;rounded=0;orthogonalLoop=1;jettySize=auto;html=1;exitX=1;exitY=0.75;exitDx=0;exitDy=0;entryX=0;entryY=0.844;entryDx=0;entryDy=0;entryPerimeter=0;strokeWidth=3;" edge="1" parent="1" source="99" target="100">
                    <mxGeometry relative="1" as="geometry"/>
                </mxCell>
                <mxCell id="99" value="&lt;table cellpadding=&quot;4&quot; cellspacing=&quot;0&quot; style=&quot;width: 100% ; height: 100% ; border: 1px solid rgb(0 , 0 , 0) ; border-collapse: collapse ; font-size: 14px ; background-color: rgb(255 , 255 , 255)&quot; border=&quot;1&quot;&gt;&lt;tbody&gt;&lt;tr style=&quot;line-height: 90%&quot;&gt;&lt;th&gt;&lt;font style=&quot;font-size: 16px&quot; color=&quot;#000000&quot;&gt;識別字&lt;/font&gt;&lt;/th&gt;&lt;th&gt;&lt;font style=&quot;font-size: 16px&quot; color=&quot;#000000&quot;&gt;記憶體地址&lt;/font&gt;&lt;/th&gt;&lt;/tr&gt;&lt;tr&gt;&lt;td&gt;&lt;font style=&quot;font-size: 14px&quot; color=&quot;#000000&quot;&gt;box&lt;/font&gt;&lt;/td&gt;&lt;td&gt;&lt;font style=&quot;font-size: 14px&quot; color=&quot;#000000&quot;&gt;0x01&lt;/font&gt;&lt;/td&gt;&lt;/tr&gt;&lt;/tbody&gt;&lt;/table&gt; " style="verticalAlign=top;align=left;overflow=fill;fontSize=15;fontFamily=正黑體;html=1;strokeWidth=3;strokeColor=none;fillColor=none;" parent="1" vertex="1">
                    <mxGeometry x="40" y="30" width="160" height="60" as="geometry"/>
                </mxCell>
                <mxCell id="100" value="&lt;table cellpadding=&quot;4&quot; cellspacing=&quot;0&quot; style=&quot;width: 100% ; height: 100% ; border: 1px solid rgb(0 , 0 , 0) ; border-collapse: collapse ; background-color: rgb(255 , 255 , 255) ; font-size: 14px&quot; border=&quot;1&quot;&gt;&lt;tbody&gt;&lt;tr style=&quot;line-height: 90%&quot;&gt;&lt;th&gt;&lt;span&gt;&lt;font style=&quot;font-size: 16px&quot;&gt;記憶體地址&lt;br&gt;&lt;/font&gt;&lt;/span&gt;&lt;/th&gt;&lt;th&gt;&lt;span&gt;&lt;font style=&quot;font-size: 16px&quot;&gt;值&lt;/font&gt;&lt;/span&gt;&lt;/th&gt;&lt;/tr&gt;&lt;tr&gt;&lt;td&gt;&lt;span&gt;&lt;font style=&quot;font-size: 14px&quot;&gt;&lt;strike&gt;0x00&lt;br&gt;&lt;/strike&gt;&lt;/font&gt;&lt;/span&gt;&lt;/td&gt;&lt;td&gt;&lt;span style=&quot;font-size: 14px&quot;&gt;&lt;strike&gt;1&lt;/strike&gt;&lt;/span&gt;&lt;/td&gt;&lt;/tr&gt;&lt;tr&gt;&lt;td&gt;0x01&lt;/td&gt;&lt;td&gt;2&lt;/td&gt;&lt;/tr&gt;&lt;/tbody&gt;&lt;/table&gt; " style="verticalAlign=top;align=left;overflow=fill;fontSize=12;fontFamily=正黑體;html=1;strokeWidth=3;fillColor=none;strokeColor=none;fontColor=#000000;" parent="1" vertex="1">
                    <mxGeometry x="280" y="30" width="180" height="90" as="geometry"/>
                </mxCell>
            </root>
        </mxGraphModel>
    </diagram>
</mxfile>